<svg xmlns="http://www.w3.org/2000/svg" xmlns:xlink="http://www.w3.org/1999/xlink" width="800" zoomAndPan="magnify" viewBox="0 0 600 74.999997" height="100" preserveAspectRatio="xMidYMid meet" version="1.0"><defs><filter x="0%" y="0%" width="100%" height="100%" id="c3a7e87545"><feColorMatrix values="0 0 0 0 1 0 0 0 0 1 0 0 0 0 1 0 0 0 1 0" color-interpolation-filters="sRGB"/></filter><g/><clipPath id="aff7f75e0a"><rect x="0" width="155" y="0" height="32"/></clipPath><clipPath id="94a387c5f7"><path d="M 347.179688 8.035156 L 406.429688 8.035156 L 406.429688 67.285156 L 347.179688 67.285156 Z M 347.179688 8.035156 " clip-rule="nonzero"/></clipPath><clipPath id="9779ee6b95"><path d="M 350 32 L 402 32 L 402 67.285156 L 350 67.285156 Z M 350 32 " clip-rule="nonzero"/></clipPath><clipPath id="3fda49d837"><path d="M 360 11 L 392 11 L 392 36.707031 L 360 36.707031 Z M 360 11 " clip-rule="nonzero"/></clipPath><clipPath id="2fa429e2e3"><path d="M 354 8.035156 L 398 8.035156 L 398 36.707031 L 354 36.707031 Z M 354 8.035156 " clip-rule="nonzero"/></clipPath><clipPath id="a02216dc5a"><path d="M 360 12 L 392 12 L 392 36.707031 L 360 36.707031 Z M 360 12 " clip-rule="nonzero"/></clipPath><clipPath id="c4b9015709"><path d="M 374 34 L 378 34 L 378 36.707031 L 374 36.707031 Z M 374 34 " clip-rule="nonzero"/></clipPath><mask id="b9acca54c4"><g filter="url(#c3a7e87545)"><rect x="-60" width="720" fill="#000000" y="-7.5" height="89.999996" fill-opacity="0.6"/></g></mask><clipPath id="0bfe29c86a"><path d="M 0.601562 0.199219 L 1.320312 0.199219 L 1.320312 8.839844 L 0.601562 8.839844 Z M 0.601562 0.199219 " clip-rule="nonzero"/></clipPath><clipPath id="11a8eda3cf"><rect x="0" width="2" y="0" height="9"/></clipPath><mask id="ec754e0218"><g filter="url(#c3a7e87545)"><rect x="-60" width="720" fill="#000000" y="-7.5" height="89.999996" fill-opacity="0.6"/></g></mask><clipPath id="d2c9caba7a"><path d="M 0.601562 0.121094 L 9.238281 0.121094 L 9.238281 0.839844 L 0.601562 0.839844 Z M 0.601562 0.121094 " clip-rule="nonzero"/></clipPath><clipPath id="6a08b83f75"><rect x="0" width="10" y="0" height="1"/></clipPath><mask id="9111b91826"><g filter="url(#c3a7e87545)"><rect x="-60" width="720" fill="#000000" y="-7.5" height="89.999996" fill-opacity="0.6"/></g></mask><clipPath id="74058f3d60"><path d="M 0.601562 0.121094 L 1.320312 0.121094 L 1.320312 8.761719 L 0.601562 8.761719 Z M 0.601562 0.121094 " clip-rule="nonzero"/></clipPath><clipPath id="58a68d7dfe"><rect x="0" width="2" y="0" height="9"/></clipPath><mask id="1429eb8052"><g filter="url(#c3a7e87545)"><rect x="-60" width="720" fill="#000000" y="-7.5" height="89.999996" fill-opacity="0.6"/></g></mask><clipPath id="23c4a36b88"><path d="M 0.679688 0.121094 L 9.320312 0.121094 L 9.320312 0.839844 L 0.679688 0.839844 Z M 0.679688 0.121094 " clip-rule="nonzero"/></clipPath><clipPath id="ade8aa2ba9"><rect x="0" width="10" y="0" height="1"/></clipPath><mask id="4d4d1a3d73"><g filter="url(#c3a7e87545)"><rect x="-60" width="720" fill="#000000" y="-7.5" height="89.999996" fill-opacity="0.4"/></g></mask><clipPath id="8ad1596ba0"><path d="M 1 1 L 6.839844 1 L 6.839844 6.839844 L 1 6.839844 Z M 1 1 " clip-rule="nonzero"/></clipPath><clipPath id="8d8db85415"><path d="M 0.601562 0.601562 L 6.839844 0.601562 L 6.839844 6.839844 L 0.601562 6.839844 Z M 0.601562 0.601562 " clip-rule="nonzero"/></clipPath><clipPath id="08da55ec7b"><rect x="0" width="7" y="0" height="7"/></clipPath><mask id="5113d06538"><g filter="url(#c3a7e87545)"><rect x="-60" width="720" fill="#000000" y="-7.5" height="89.999996" fill-opacity="0.4"/></g></mask><clipPath id="fa5763441a"><path d="M 1 0.121094 L 6.839844 0.121094 L 6.839844 6.359375 L 1 6.359375 Z M 1 0.121094 " clip-rule="nonzero"/></clipPath><clipPath id="06469bb2b4"><path d="M 0.601562 0.121094 L 6.839844 0.121094 L 6.839844 6.359375 L 0.601562 6.359375 Z M 0.601562 0.121094 " clip-rule="nonzero"/></clipPath><clipPath id="0fb283288f"><rect x="0" width="7" y="0" height="7"/></clipPath><mask id="1c97e27559"><g filter="url(#c3a7e87545)"><rect x="-60" width="720" fill="#000000" y="-7.5" height="89.999996" fill-opacity="0.4"/></g></mask><clipPath id="a6944413be"><path d="M 0.078125 0.121094 L 6.320312 0.121094 L 6.320312 6.359375 L 0.078125 6.359375 Z M 0.078125 0.121094 " clip-rule="nonzero"/></clipPath><clipPath id="01f546cb03"><rect x="0" width="7" y="0" height="7"/></clipPath><mask id="7b961306f5"><g filter="url(#c3a7e87545)"><rect x="-60" width="720" fill="#000000" y="-7.5" height="89.999996" fill-opacity="0.4"/></g></mask><clipPath id="fc2d425fe1"><path d="M 0.078125 1 L 6.320312 1 L 6.320312 6.839844 L 0.078125 6.839844 Z M 0.078125 1 " clip-rule="nonzero"/></clipPath><clipPath id="5a8c1f22e8"><path d="M 0.078125 0.601562 L 6.320312 0.601562 L 6.320312 6.839844 L 0.078125 6.839844 Z M 0.078125 0.601562 " clip-rule="nonzero"/></clipPath><clipPath id="081e826d5d"><rect x="0" width="7" y="0" height="7"/></clipPath></defs><rect x="-60" width="720" fill="#ffffff" y="-7.5" height="89.999996" fill-opacity="1"/><rect x="-60" width="720" fill="#101820" y="-7.5" height="89.999996" fill-opacity="1"/><g transform="matrix(1, 0, 0, 1, 193, 25)"><g clip-path="url(#aff7f75e0a)"><g fill="#fee715" fill-opacity="1"><g transform="translate(0.890773, 24.173018)"><g><path d="M 15.75 -8.40625 C 15.75 -5.6875 14.976562 -3.601562 13.4375 -2.15625 C 11.894531 -0.71875 9.664062 0 6.75 0 L 2.078125 0 L 2.078125 -16.484375 L 7.25 -16.484375 C 9.9375 -16.484375 12.023438 -15.769531 13.515625 -14.34375 C 15.003906 -12.925781 15.75 -10.945312 15.75 -8.40625 Z M 12.125 -8.3125 C 12.125 -11.851562 10.5625 -13.625 7.4375 -13.625 L 5.578125 -13.625 L 5.578125 -2.890625 L 7.0625 -2.890625 C 10.4375 -2.890625 12.125 -4.695312 12.125 -8.3125 Z M 12.125 -8.3125 "/></g></g><g transform="translate(17.987838, 24.173018)"><g><path d="M 15.5 -16.484375 L 15.5 -5.8125 C 15.5 -4.59375 15.222656 -3.523438 14.671875 -2.609375 C 14.128906 -1.691406 13.34375 -0.988281 12.3125 -0.5 C 11.28125 -0.0195312 10.0625 0.21875 8.65625 0.21875 C 6.539062 0.21875 4.894531 -0.320312 3.71875 -1.40625 C 2.550781 -2.488281 1.96875 -3.972656 1.96875 -5.859375 L 1.96875 -16.484375 L 5.453125 -16.484375 L 5.453125 -6.390625 C 5.453125 -5.117188 5.707031 -4.1875 6.21875 -3.59375 C 6.726562 -3 7.570312 -2.703125 8.75 -2.703125 C 9.894531 -2.703125 10.722656 -3 11.234375 -3.59375 C 11.753906 -4.195312 12.015625 -5.140625 12.015625 -6.421875 L 12.015625 -16.484375 Z M 15.5 -16.484375 "/></g></g><g transform="translate(35.445791, 24.173018)"><g><path d="M 11.8125 -4.578125 C 11.8125 -3.085938 11.273438 -1.914062 10.203125 -1.0625 C 9.128906 -0.207031 7.640625 0.21875 5.734375 0.21875 C 3.972656 0.21875 2.414062 -0.109375 1.0625 -0.765625 L 1.0625 -4.015625 C 2.175781 -3.515625 3.117188 -3.160156 3.890625 -2.953125 C 4.660156 -2.753906 5.363281 -2.65625 6 -2.65625 C 6.769531 -2.65625 7.359375 -2.800781 7.765625 -3.09375 C 8.171875 -3.394531 8.375 -3.832031 8.375 -4.40625 C 8.375 -4.726562 8.285156 -5.015625 8.109375 -5.265625 C 7.929688 -5.523438 7.664062 -5.769531 7.3125 -6 C 6.957031 -6.226562 6.242188 -6.597656 5.171875 -7.109375 C 4.171875 -7.585938 3.414062 -8.046875 2.90625 -8.484375 C 2.40625 -8.921875 2.003906 -9.425781 1.703125 -10 C 1.398438 -10.582031 1.25 -11.257812 1.25 -12.03125 C 1.25 -13.488281 1.742188 -14.632812 2.734375 -15.46875 C 3.722656 -16.300781 5.085938 -16.71875 6.828125 -16.71875 C 7.691406 -16.71875 8.507812 -16.613281 9.28125 -16.40625 C 10.0625 -16.207031 10.878906 -15.925781 11.734375 -15.5625 L 10.59375 -12.84375 C 9.71875 -13.207031 8.992188 -13.457031 8.421875 -13.59375 C 7.847656 -13.738281 7.28125 -13.8125 6.71875 -13.8125 C 6.0625 -13.8125 5.554688 -13.65625 5.203125 -13.34375 C 4.847656 -13.039062 4.671875 -12.640625 4.671875 -12.140625 C 4.671875 -11.835938 4.738281 -11.570312 4.875 -11.34375 C 5.019531 -11.113281 5.25 -10.890625 5.5625 -10.671875 C 5.875 -10.460938 6.613281 -10.078125 7.78125 -9.515625 C 9.320312 -8.773438 10.378906 -8.035156 10.953125 -7.296875 C 11.523438 -6.554688 11.8125 -5.648438 11.8125 -4.578125 Z M 11.8125 -4.578125 "/></g></g><g transform="translate(48.167091, 24.173018)"><g><path d="M 15.328125 0 L 11.359375 0 L 7.046875 -6.953125 L 5.578125 -5.890625 L 5.578125 0 L 2.078125 0 L 2.078125 -16.484375 L 5.578125 -16.484375 L 5.578125 -8.9375 L 6.953125 -10.875 L 11.40625 -16.484375 L 15.296875 -16.484375 L 9.546875 -9.1875 Z M 15.328125 0 "/></g></g><g transform="translate(63.504827, 24.173018)"><g><path d="M 18.125 0 L 14.15625 0 L 11.921875 -8.65625 C 11.835938 -8.96875 11.695312 -9.601562 11.5 -10.5625 C 11.300781 -11.53125 11.1875 -12.179688 11.15625 -12.515625 C 11.101562 -12.109375 10.988281 -11.457031 10.8125 -10.5625 C 10.632812 -9.664062 10.492188 -9.023438 10.390625 -8.640625 L 8.171875 0 L 4.203125 0 L 0 -16.484375 L 3.4375 -16.484375 L 5.546875 -7.484375 C 5.910156 -5.828125 6.175781 -4.390625 6.34375 -3.171875 C 6.394531 -3.597656 6.5 -4.257812 6.65625 -5.15625 C 6.820312 -6.050781 6.972656 -6.75 7.109375 -7.25 L 9.515625 -16.484375 L 12.828125 -16.484375 L 15.21875 -7.25 C 15.320312 -6.832031 15.453125 -6.195312 15.609375 -5.34375 C 15.773438 -4.5 15.898438 -3.773438 15.984375 -3.171875 C 16.054688 -3.753906 16.175781 -4.484375 16.34375 -5.359375 C 16.507812 -6.234375 16.660156 -6.941406 16.796875 -7.484375 L 18.890625 -16.484375 L 22.328125 -16.484375 Z M 18.125 0 "/></g></g><g transform="translate(85.834768, 24.173018)"><g><path d="M 12.171875 0 L 10.96875 -3.921875 L 4.96875 -3.921875 L 3.765625 0 L 0 0 L 5.8125 -16.546875 L 10.09375 -16.546875 L 15.9375 0 Z M 10.140625 -6.859375 C 9.035156 -10.410156 8.410156 -12.421875 8.265625 -12.890625 C 8.128906 -13.359375 8.03125 -13.726562 7.96875 -14 C 7.71875 -13.03125 7.007812 -10.648438 5.84375 -6.859375 Z M 10.140625 -6.859375 "/></g></g><g transform="translate(101.770225, 24.173018)"><g><path d="M 2.078125 0 L 2.078125 -16.484375 L 5.578125 -16.484375 L 5.578125 -2.890625 L 12.25 -2.890625 L 12.25 0 Z M 2.078125 0 "/></g></g><g transform="translate(114.818579, 24.173018)"><g><path d="M 2.078125 0 L 2.078125 -16.484375 L 5.578125 -16.484375 L 5.578125 -2.890625 L 12.25 -2.890625 L 12.25 0 Z M 2.078125 0 "/></g></g><g transform="translate(127.866933, 24.173018)"><g><path d="M 11.5625 0 L 2.078125 0 L 2.078125 -16.484375 L 11.5625 -16.484375 L 11.5625 -13.625 L 5.578125 -13.625 L 5.578125 -10 L 11.15625 -10 L 11.15625 -7.140625 L 5.578125 -7.140625 L 5.578125 -2.890625 L 11.5625 -2.890625 Z M 11.5625 0 "/></g></g><g transform="translate(140.80251, 24.173018)"><g><path d="M 8.4375 0 L 4.9375 0 L 4.9375 -13.578125 L 0.46875 -13.578125 L 0.46875 -16.484375 L 12.90625 -16.484375 L 12.90625 -13.578125 L 8.4375 -13.578125 Z M 8.4375 0 "/></g></g></g></g></g><g clip-path="url(#94a387c5f7)"><path fill="#101820" d="M 323.527344 -21.042969 L 428.527344 -21.042969 L 428.527344 83.957031 L 323.527344 83.957031 Z M 323.527344 -21.042969 " fill-opacity="1" fill-rule="nonzero"/></g><path fill="#101820" d="M 357.128906 36.707031 L 394.929688 36.707031 C 395.207031 36.707031 395.472656 36.757812 395.730469 36.867188 C 395.988281 36.972656 396.214844 37.125 396.414062 37.320312 C 396.609375 37.519531 396.761719 37.746094 396.867188 38.003906 C 396.972656 38.261719 397.027344 38.527344 397.027344 38.804688 L 397.027344 60.855469 C 397.027344 61.136719 396.972656 61.402344 396.867188 61.660156 C 396.761719 61.917969 396.609375 62.144531 396.414062 62.339844 C 396.214844 62.539062 395.988281 62.691406 395.730469 62.796875 C 395.472656 62.902344 395.207031 62.957031 394.929688 62.957031 L 357.128906 62.957031 C 356.847656 62.957031 356.582031 62.902344 356.324219 62.796875 C 356.066406 62.691406 355.839844 62.539062 355.644531 62.339844 C 355.445312 62.144531 355.292969 61.917969 355.1875 61.660156 C 355.082031 61.402344 355.027344 61.136719 355.027344 60.855469 L 355.027344 38.804688 C 355.027344 38.527344 355.082031 38.261719 355.1875 38.003906 C 355.292969 37.746094 355.445312 37.519531 355.644531 37.320312 C 355.839844 37.125 356.066406 36.972656 356.324219 36.867188 C 356.582031 36.757812 356.847656 36.707031 357.128906 36.707031 Z M 357.128906 36.707031 " fill-opacity="1" fill-rule="nonzero"/><g clip-path="url(#9779ee6b95)"><path stroke-linecap="butt" transform="matrix(0.2625, 0, 0, 0.2625, 323.527836, -21.04356)" fill="none" stroke-linejoin="miter" d="M 128.004074 220.002246 L 272.007046 220.002246 C 273.063593 220.002246 274.075498 220.195699 275.057641 220.612365 C 276.039784 221.014151 276.902879 221.594508 277.661808 222.338556 C 278.405855 223.097484 278.986212 223.960579 279.387998 224.942722 C 279.789784 225.924865 279.998117 226.93677 279.998117 227.993317 L 279.998117 311.996291 C 279.998117 313.06772 279.789784 314.079625 279.387998 315.061767 C 278.986212 316.04391 278.405855 316.907005 277.661808 317.651053 C 276.902879 318.409982 276.039784 318.990339 275.057641 319.392124 C 274.075498 319.79391 273.063593 320.002243 272.007046 320.002243 L 128.004074 320.002243 C 126.932645 320.002243 125.92074 319.79391 124.938598 319.392124 C 123.956455 318.990339 123.093359 318.409982 122.349312 317.651053 C 121.590383 316.907005 121.010026 316.04391 120.608241 315.061767 C 120.206455 314.079625 119.998121 313.06772 119.998121 311.996291 L 119.998121 227.993317 C 119.998121 226.93677 120.206455 225.924865 120.608241 224.942722 C 121.010026 223.960579 121.590383 223.097484 122.349312 222.338556 C 123.093359 221.594508 123.956455 221.014151 124.938598 220.612365 C 125.92074 220.195699 126.932645 220.002246 128.004074 220.002246 Z M 128.004074 220.002246 " stroke="#fee715" stroke-width="3" stroke-opacity="1" stroke-miterlimit="4"/></g><path stroke-linecap="butt" transform="matrix(0.2625, 0, 0, 0.2625, 323.527836, -21.04356)" fill="none" stroke-linejoin="miter" d="M 119.998121 250.002245 L 279.998117 250.002245 " stroke="#fee715" stroke-width="3" stroke-opacity="1" stroke-miterlimit="4"/><path stroke-linecap="butt" transform="matrix(0.2625, 0, 0, 0.2625, 323.527836, -21.04356)" fill-opacity="1" fill="#101820" fill-rule="nonzero" stroke-linejoin="miter" d="M 208.004071 275.002245 C 208.004071 276.058792 207.795738 277.085578 207.393952 278.067721 C 206.992167 279.034983 206.41181 279.912959 205.652881 280.657006 C 204.908833 281.401054 204.045738 281.981411 203.063595 282.398078 C 202.081453 282.799864 201.054667 282.993316 199.998119 282.993316 C 198.941572 282.993316 197.914786 282.799864 196.932643 282.398078 C 195.965381 281.981411 195.087405 281.401054 194.343357 280.657006 C 193.59931 279.912959 193.018953 279.034983 192.602286 278.067721 C 192.2005 277.085578 192.007048 276.058792 192.007048 275.002245 C 192.007048 273.945697 192.2005 272.918911 192.602286 271.936769 C 193.018953 270.954626 193.59931 270.091531 194.343357 269.347483 C 195.087405 268.588554 195.965381 268.008197 196.932643 267.606412 C 197.914786 267.204626 198.941572 266.996293 199.998119 266.996293 C 201.054667 266.996293 202.081453 267.204626 203.063595 267.606412 C 204.045738 268.008197 204.908833 268.588554 205.652881 269.347483 C 206.41181 270.091531 206.992167 270.954626 207.393952 271.936769 C 207.795738 272.918911 208.004071 273.945697 208.004071 275.002245 Z M 208.004071 275.002245 " stroke="#fee715" stroke-width="2" stroke-opacity="1" stroke-miterlimit="4"/><path stroke-linecap="butt" transform="matrix(0.2625, 0, 0, 0.2625, 323.527836, -21.04356)" fill-opacity="1" fill="#101820" fill-rule="nonzero" stroke-linejoin="miter" d="M 198.004072 275.002245 L 202.007048 275.002245 C 202.274905 275.002245 202.513 275.09153 202.706452 275.299864 C 202.899905 275.493316 203.004072 275.71653 203.004072 275.999268 L 203.004072 284.005221 C 203.004072 284.273078 202.899905 284.511173 202.706452 284.704625 C 202.513 284.898078 202.274905 285.002244 202.007048 285.002244 L 198.004072 285.002244 C 197.721334 285.002244 197.483238 284.898078 197.289786 284.704625 C 197.096334 284.511173 197.007048 284.273078 197.007048 284.005221 L 197.007048 275.999268 C 197.007048 275.71653 197.096334 275.493316 197.289786 275.299864 C 197.483238 275.09153 197.721334 275.002245 198.004072 275.002245 Z M 198.004072 275.002245 " stroke="#fee715" stroke-width="2" stroke-opacity="1" stroke-miterlimit="4"/><g clip-path="url(#3fda49d837)"><path fill="#101820" d="M 391.777344 27.519531 C 391.777344 28.554688 391.675781 29.578125 391.476562 30.589844 C 391.273438 31.605469 390.976562 32.589844 390.578125 33.546875 C 390.183594 34.5 389.699219 35.410156 389.125 36.269531 C 388.550781 37.128906 387.894531 37.925781 387.164062 38.65625 C 386.433594 39.386719 385.636719 40.039062 384.777344 40.613281 C 383.917969 41.1875 383.011719 41.675781 382.054688 42.070312 C 381.101562 42.464844 380.113281 42.765625 379.101562 42.964844 C 378.085938 43.167969 377.0625 43.269531 376.027344 43.269531 C 374.992188 43.269531 373.96875 43.167969 372.957031 42.964844 C 371.941406 42.765625 370.957031 42.464844 370 42.070312 C 369.046875 41.675781 368.136719 41.1875 367.277344 40.613281 C 366.417969 40.039062 365.621094 39.386719 364.890625 38.65625 C 364.160156 37.925781 363.507812 37.128906 362.933594 36.269531 C 362.359375 35.410156 361.871094 34.5 361.476562 33.546875 C 361.082031 32.589844 360.78125 31.605469 360.582031 30.589844 C 360.378906 29.578125 360.277344 28.554688 360.277344 27.519531 C 360.277344 26.484375 360.378906 25.460938 360.582031 24.445312 C 360.78125 23.433594 361.082031 22.445312 361.476562 21.492188 C 361.871094 20.535156 362.359375 19.628906 362.933594 18.769531 C 363.507812 17.910156 364.160156 17.113281 364.890625 16.382812 C 365.621094 15.652344 366.417969 14.996094 367.277344 14.421875 C 368.136719 13.847656 369.046875 13.363281 370 12.96875 C 370.957031 12.570312 371.941406 12.273438 372.957031 12.070312 C 373.96875 11.871094 374.992188 11.769531 376.027344 11.769531 C 377.0625 11.769531 378.085938 11.871094 379.101562 12.070312 C 380.113281 12.273438 381.101562 12.570312 382.054688 12.96875 C 383.011719 13.363281 383.917969 13.847656 384.777344 14.421875 C 385.636719 14.996094 386.433594 15.652344 387.164062 16.382812 C 387.894531 17.113281 388.550781 17.910156 389.125 18.769531 C 389.699219 19.628906 390.183594 20.535156 390.578125 21.492188 C 390.976562 22.445312 391.273438 23.433594 391.476562 24.445312 C 391.675781 25.460938 391.777344 26.484375 391.777344 27.519531 Z M 391.777344 27.519531 " fill-opacity="1" fill-rule="nonzero"/></g><g clip-path="url(#2fa429e2e3)"><path stroke-linecap="butt" transform="matrix(0.2625, 0, 0, 0.2625, 323.527836, -21.04356)" fill="none" stroke-linejoin="miter" d="M 259.998118 185.002247 C 259.998118 188.945699 259.611213 192.844509 258.852284 196.698675 C 258.078475 200.567723 256.947522 204.317723 255.429665 207.963556 C 253.926689 211.594508 252.081451 215.06177 249.893951 218.33558 C 247.706451 221.609389 245.206451 224.645103 242.423713 227.427841 C 239.640975 230.210579 236.605261 232.695698 233.331452 234.883198 C 230.057642 237.070698 226.605261 238.930817 222.959428 240.433793 C 219.328476 241.936769 215.563595 243.082603 211.709428 243.841531 C 207.840381 244.615341 203.941572 245.002246 199.998119 245.002246 C 196.054667 245.002246 192.155858 244.615341 188.301691 243.841531 C 184.432643 243.082603 180.682644 241.936769 177.03681 240.433793 C 173.405858 238.930817 169.938596 237.070698 166.664787 234.883198 C 163.390977 232.695698 160.355263 230.210579 157.572525 227.427841 C 154.789787 224.645103 152.304668 221.609389 150.117168 218.33558 C 147.929668 215.06177 146.069549 211.594508 144.566573 207.963556 C 143.063597 204.317723 141.917764 200.567723 141.158835 196.698675 C 140.385026 192.844509 139.998121 188.945699 139.998121 185.002247 C 139.998121 181.058795 140.385026 177.159986 141.158835 173.290938 C 141.917764 169.436771 143.063597 165.671891 144.566573 162.040938 C 146.069549 158.395105 147.929668 154.942724 150.117168 151.668915 C 152.304668 148.395105 154.789787 145.359391 157.572525 142.576653 C 160.355263 139.793915 163.390977 137.293915 166.664787 135.106415 C 169.938596 132.918915 173.405858 131.073677 177.03681 129.570701 C 180.682644 128.052844 184.432643 126.921892 188.301691 126.148082 C 192.155858 125.389154 196.054667 125.002249 199.998119 125.002249 C 203.941572 125.002249 207.840381 125.389154 211.709428 126.148082 C 215.563595 126.921892 219.328476 128.052844 222.959428 129.570701 C 226.605261 131.073677 230.057642 132.918915 233.331452 135.106415 C 236.605261 137.293915 239.640975 139.793915 242.423713 142.576653 C 245.206451 145.359391 247.706451 148.395105 249.893951 151.668915 C 252.081451 154.942724 253.926689 158.395105 255.429665 162.040938 C 256.947522 165.671891 258.078475 169.436771 258.852284 173.290938 C 259.611213 177.159986 259.998118 181.058795 259.998118 185.002247 Z M 259.998118 185.002247 " stroke="#fee715" stroke-width="4" stroke-opacity="1" stroke-miterlimit="4"/></g><g clip-path="url(#a02216dc5a)"><path stroke-linecap="butt" transform="matrix(0.2625, 0, 0, 0.2625, 323.527836, -21.04356)" fill="none" stroke-linejoin="miter" d="M 249.998118 185.002247 C 249.998118 188.276057 249.685618 191.534985 249.045737 194.749271 C 248.405856 197.978437 247.453475 201.103437 246.188594 204.139151 C 244.938594 207.159985 243.390975 210.046889 241.575499 212.784985 C 239.745142 215.508199 237.67669 218.037961 235.355261 220.359389 C 233.033833 222.680818 230.504071 224.74927 227.780857 226.579627 C 225.042761 228.395103 222.170738 229.942722 219.135023 231.192722 C 216.099309 232.457603 212.974309 233.395103 209.760024 234.034984 C 206.530857 234.674865 203.28681 235.002246 199.998119 235.002246 C 196.72431 235.002246 193.465381 234.674865 190.251096 234.034984 C 187.021929 233.395103 183.896929 232.457603 180.861215 231.192722 C 177.825501 229.942722 174.953477 228.395103 172.215382 226.579627 C 169.492168 224.74927 166.962406 222.680818 164.640977 220.359389 C 162.319549 218.037961 160.251097 215.508199 158.420739 212.784985 C 156.605263 210.046889 155.057644 207.159985 153.807644 204.139151 C 152.542763 201.103437 151.605263 197.978437 150.965383 194.749271 C 150.325502 191.534985 149.998121 188.276057 149.998121 185.002247 C 149.998121 181.713557 150.325502 178.469509 150.965383 175.240343 C 151.605263 172.026057 152.542763 168.901057 153.807644 165.865343 C 155.057644 162.829629 156.605263 159.957605 158.420739 157.21951 C 160.251097 154.496296 162.319549 151.966534 164.640977 149.645105 C 166.962406 147.323677 169.492168 145.255225 172.215382 143.424867 C 174.953477 141.609391 177.825501 140.061772 180.861215 138.811772 C 183.896929 137.546891 187.021929 136.59451 190.251096 135.95463 C 193.465381 135.314749 196.72431 135.002249 199.998119 135.002249 C 203.28681 135.002249 206.530857 135.314749 209.760024 135.95463 C 212.974309 136.59451 216.099309 137.546891 219.135023 138.811772 C 222.170738 140.061772 225.042761 141.609391 227.780857 143.424867 C 230.504071 145.255225 233.033833 147.323677 235.355261 149.645105 C 237.67669 151.966534 239.745142 154.496296 241.575499 157.21951 C 243.390975 159.957605 244.938594 162.829629 246.188594 165.865343 C 247.453475 168.901057 248.405856 172.026057 249.045737 175.240343 C 249.685618 178.469509 249.998118 181.713557 249.998118 185.002247 Z M 249.998118 185.002247 " stroke="#fee715" stroke-width="1.5" stroke-opacity="0.3" stroke-miterlimit="4"/></g><path fill="#fee715" d="M 377.339844 27.519531 C 377.339844 27.691406 377.308594 27.859375 377.242188 28.019531 C 377.171875 28.183594 377.078125 28.324219 376.957031 28.445312 C 376.832031 28.570312 376.691406 28.664062 376.53125 28.730469 C 376.371094 28.796875 376.203125 28.832031 376.027344 28.832031 C 375.855469 28.832031 375.6875 28.796875 375.527344 28.730469 C 375.363281 28.664062 375.222656 28.570312 375.101562 28.445312 C 374.976562 28.324219 374.882812 28.183594 374.816406 28.019531 C 374.75 27.859375 374.714844 27.691406 374.714844 27.519531 C 374.714844 27.34375 374.75 27.175781 374.816406 27.015625 C 374.882812 26.855469 374.976562 26.714844 375.101562 26.589844 C 375.222656 26.46875 375.363281 26.371094 375.527344 26.304688 C 375.6875 26.238281 375.855469 26.207031 376.027344 26.207031 C 376.203125 26.207031 376.371094 26.238281 376.53125 26.304688 C 376.691406 26.371094 376.832031 26.46875 376.957031 26.589844 C 377.078125 26.714844 377.171875 26.855469 377.242188 27.015625 C 377.308594 27.175781 377.339844 27.34375 377.339844 27.519531 Z M 377.339844 27.519531 " fill-opacity="1" fill-rule="nonzero"/><path fill="#fee715" d="M 377.078125 19.644531 C 377.078125 19.78125 377.050781 19.917969 376.996094 20.046875 C 376.945312 20.175781 376.867188 20.289062 376.769531 20.386719 C 376.671875 20.484375 376.558594 20.5625 376.429688 20.613281 C 376.300781 20.667969 376.167969 20.695312 376.027344 20.695312 C 375.886719 20.695312 375.753906 20.667969 375.625 20.613281 C 375.496094 20.5625 375.382812 20.484375 375.285156 20.386719 C 375.1875 20.289062 375.109375 20.175781 375.058594 20.046875 C 375.003906 19.917969 374.976562 19.78125 374.976562 19.644531 C 374.976562 19.503906 375.003906 19.371094 375.058594 19.242188 C 375.109375 19.113281 375.1875 19 375.285156 18.902344 C 375.382812 18.804688 375.496094 18.726562 375.625 18.675781 C 375.753906 18.621094 375.886719 18.59375 376.027344 18.59375 C 376.167969 18.59375 376.300781 18.621094 376.429688 18.675781 C 376.558594 18.726562 376.671875 18.804688 376.769531 18.902344 C 376.867188 19 376.945312 19.113281 376.996094 19.242188 C 377.050781 19.371094 377.078125 19.503906 377.078125 19.644531 Z M 377.078125 19.644531 " fill-opacity="1" fill-rule="nonzero"/><path fill="#fee715" d="M 384.953125 27.519531 C 384.953125 27.65625 384.925781 27.792969 384.871094 27.921875 C 384.820312 28.050781 384.742188 28.164062 384.644531 28.261719 C 384.546875 28.359375 384.433594 28.4375 384.304688 28.488281 C 384.175781 28.542969 384.042969 28.570312 383.902344 28.570312 C 383.761719 28.570312 383.628906 28.542969 383.5 28.488281 C 383.371094 28.4375 383.257812 28.359375 383.160156 28.261719 C 383.0625 28.164062 382.984375 28.050781 382.933594 27.921875 C 382.878906 27.792969 382.851562 27.65625 382.851562 27.519531 C 382.851562 27.378906 382.878906 27.246094 382.933594 27.117188 C 382.984375 26.988281 383.0625 26.875 383.160156 26.777344 C 383.257812 26.679688 383.371094 26.601562 383.5 26.550781 C 383.628906 26.496094 383.761719 26.46875 383.902344 26.46875 C 384.042969 26.46875 384.175781 26.496094 384.304688 26.550781 C 384.433594 26.601562 384.546875 26.679688 384.644531 26.777344 C 384.742188 26.875 384.820312 26.988281 384.871094 27.117188 C 384.925781 27.246094 384.953125 27.378906 384.953125 27.519531 Z M 384.953125 27.519531 " fill-opacity="1" fill-rule="nonzero"/><g clip-path="url(#c4b9015709)"><path fill="#fee715" d="M 377.078125 35.394531 C 377.078125 35.53125 377.050781 35.667969 376.996094 35.796875 C 376.945312 35.925781 376.867188 36.039062 376.769531 36.136719 C 376.671875 36.234375 376.558594 36.3125 376.429688 36.363281 C 376.300781 36.417969 376.167969 36.445312 376.027344 36.445312 C 375.886719 36.445312 375.753906 36.417969 375.625 36.363281 C 375.496094 36.3125 375.382812 36.234375 375.285156 36.136719 C 375.1875 36.039062 375.109375 35.925781 375.058594 35.796875 C 375.003906 35.667969 374.976562 35.53125 374.976562 35.394531 C 374.976562 35.253906 375.003906 35.121094 375.058594 34.992188 C 375.109375 34.863281 375.1875 34.75 375.285156 34.652344 C 375.382812 34.554688 375.496094 34.476562 375.625 34.425781 C 375.753906 34.371094 375.886719 34.34375 376.027344 34.34375 C 376.167969 34.34375 376.300781 34.371094 376.429688 34.425781 C 376.558594 34.476562 376.671875 34.554688 376.769531 34.652344 C 376.867188 34.75 376.945312 34.863281 376.996094 34.992188 C 377.050781 35.121094 377.078125 35.253906 377.078125 35.394531 Z M 377.078125 35.394531 " fill-opacity="1" fill-rule="nonzero"/></g><path fill="#fee715" d="M 369.203125 27.519531 C 369.203125 27.65625 369.175781 27.792969 369.121094 27.921875 C 369.070312 28.050781 368.992188 28.164062 368.894531 28.261719 C 368.796875 28.359375 368.683594 28.4375 368.554688 28.488281 C 368.425781 28.542969 368.292969 28.570312 368.152344 28.570312 C 368.011719 28.570312 367.878906 28.542969 367.75 28.488281 C 367.621094 28.4375 367.507812 28.359375 367.410156 28.261719 C 367.3125 28.164062 367.234375 28.050781 367.183594 27.921875 C 367.128906 27.792969 367.101562 27.65625 367.101562 27.519531 C 367.101562 27.378906 367.128906 27.246094 367.183594 27.117188 C 367.234375 26.988281 367.3125 26.875 367.410156 26.777344 C 367.507812 26.679688 367.621094 26.601562 367.75 26.550781 C 367.878906 26.496094 368.011719 26.46875 368.152344 26.46875 C 368.292969 26.46875 368.425781 26.496094 368.554688 26.550781 C 368.683594 26.601562 368.796875 26.679688 368.894531 26.777344 C 368.992188 26.875 369.070312 26.988281 369.121094 27.117188 C 369.175781 27.246094 369.203125 27.378906 369.203125 27.519531 Z M 369.203125 27.519531 " fill-opacity="1" fill-rule="nonzero"/><path fill="#fee715" d="M 382.328125 22.007812 C 382.328125 22.222656 382.25 22.410156 382.097656 22.5625 C 381.945312 22.71875 381.757812 22.792969 381.539062 22.792969 C 381.324219 22.792969 381.136719 22.71875 380.984375 22.5625 C 380.828125 22.410156 380.753906 22.222656 380.753906 22.007812 C 380.753906 21.789062 380.828125 21.601562 380.984375 21.449219 C 381.136719 21.296875 381.324219 21.21875 381.539062 21.21875 C 381.757812 21.21875 381.945312 21.296875 382.097656 21.449219 C 382.25 21.601562 382.328125 21.789062 382.328125 22.007812 Z M 382.328125 22.007812 " fill-opacity="0.8" fill-rule="nonzero"/><path fill="#fee715" d="M 382.328125 33.03125 C 382.328125 33.25 382.25 33.433594 382.097656 33.589844 C 381.945312 33.742188 381.757812 33.820312 381.539062 33.820312 C 381.324219 33.820312 381.136719 33.742188 380.984375 33.589844 C 380.828125 33.433594 380.753906 33.25 380.753906 33.03125 C 380.753906 32.8125 380.828125 32.628906 380.984375 32.472656 C 381.136719 32.320312 381.324219 32.242188 381.539062 32.242188 C 381.757812 32.242188 381.945312 32.320312 382.097656 32.472656 C 382.25 32.628906 382.328125 32.8125 382.328125 33.03125 Z M 382.328125 33.03125 " fill-opacity="0.8" fill-rule="nonzero"/><path fill="#fee715" d="M 371.304688 33.03125 C 371.304688 33.25 371.226562 33.433594 371.070312 33.589844 C 370.917969 33.742188 370.734375 33.820312 370.515625 33.820312 C 370.296875 33.820312 370.113281 33.742188 369.957031 33.589844 C 369.804688 33.433594 369.726562 33.25 369.726562 33.03125 C 369.726562 32.8125 369.804688 32.628906 369.957031 32.472656 C 370.113281 32.320312 370.296875 32.242188 370.515625 32.242188 C 370.734375 32.242188 370.917969 32.320312 371.070312 32.472656 C 371.226562 32.628906 371.304688 32.8125 371.304688 33.03125 Z M 371.304688 33.03125 " fill-opacity="0.8" fill-rule="nonzero"/><path fill="#fee715" d="M 371.304688 22.007812 C 371.304688 22.222656 371.226562 22.410156 371.070312 22.5625 C 370.917969 22.71875 370.734375 22.792969 370.515625 22.792969 C 370.296875 22.792969 370.113281 22.71875 369.957031 22.5625 C 369.804688 22.410156 369.726562 22.222656 369.726562 22.007812 C 369.726562 21.789062 369.804688 21.601562 369.957031 21.449219 C 370.113281 21.296875 370.296875 21.21875 370.515625 21.21875 C 370.734375 21.21875 370.917969 21.296875 371.070312 21.449219 C 371.226562 21.601562 371.304688 21.789062 371.304688 22.007812 Z M 371.304688 22.007812 " fill-opacity="0.8" fill-rule="nonzero"/><g mask="url(#b9acca54c4)"><g transform="matrix(1, 0, 0, 1, 375, 19)"><g clip-path="url(#11a8eda3cf)"><g clip-path="url(#0bfe29c86a)"><path stroke-linecap="butt" transform="matrix(0.2625, 0, 0, 0.2625, -51.472164, -40.04356)" fill="none" stroke-linejoin="miter" d="M 199.998119 185.002247 L 199.998119 155.002248 " stroke="#fee715" stroke-width="2" stroke-opacity="1" stroke-miterlimit="4"/></g></g></g></g><g mask="url(#ec754e0218)"><g transform="matrix(1, 0, 0, 1, 375, 27)"><g clip-path="url(#6a08b83f75)"><g clip-path="url(#d2c9caba7a)"><path stroke-linecap="butt" transform="matrix(0.2625, 0, 0, 0.2625, -51.472164, -48.043559)" fill="none" stroke-linejoin="miter" d="M 199.998119 185.002244 L 229.998118 185.002244 " stroke="#fee715" stroke-width="2" stroke-opacity="1" stroke-miterlimit="4"/></g></g></g></g><g mask="url(#9111b91826)"><g transform="matrix(1, 0, 0, 1, 375, 27)"><g clip-path="url(#58a68d7dfe)"><g clip-path="url(#74058f3d60)"><path stroke-linecap="butt" transform="matrix(0.2625, 0, 0, 0.2625, -51.472164, -48.043559)" fill="none" stroke-linejoin="miter" d="M 199.998119 185.002244 L 199.998119 215.002244 " stroke="#fee715" stroke-width="2" stroke-opacity="1" stroke-miterlimit="4"/></g></g></g></g><g mask="url(#1429eb8052)"><g transform="matrix(1, 0, 0, 1, 367, 27)"><g clip-path="url(#ade8aa2ba9)"><g clip-path="url(#23c4a36b88)"><path stroke-linecap="butt" transform="matrix(0.2625, 0, 0, 0.2625, -43.472164, -48.043559)" fill="none" stroke-linejoin="miter" d="M 199.998119 185.002244 L 169.99812 185.002244 " stroke="#fee715" stroke-width="2" stroke-opacity="1" stroke-miterlimit="4"/></g></g></g></g><g mask="url(#4d4d1a3d73)"><g transform="matrix(1, 0, 0, 1, 375, 21)"><g clip-path="url(#08da55ec7b)"><g clip-path="url(#8ad1596ba0)"><path fill="#000000" d="M 1.027344 6.519531 L 6.539062 1.007812 " fill-opacity="1" fill-rule="nonzero"/></g><g clip-path="url(#8d8db85415)"><path stroke-linecap="butt" transform="matrix(0.2625, 0, 0, 0.2625, -51.472164, -42.043559)" fill="none" stroke-linejoin="miter" d="M 199.998119 185.002244 L 220.995142 164.005221 " stroke="#fee715" stroke-width="1.5" stroke-opacity="1" stroke-miterlimit="4"/></g></g></g></g><g mask="url(#5113d06538)"><g transform="matrix(1, 0, 0, 1, 375, 27)"><g clip-path="url(#0fb283288f)"><g clip-path="url(#fa5763441a)"><path fill="#000000" d="M 1.027344 0.519531 L 6.539062 6.03125 " fill-opacity="1" fill-rule="nonzero"/></g><g clip-path="url(#06469bb2b4)"><path stroke-linecap="butt" transform="matrix(0.2625, 0, 0, 0.2625, -51.472164, -48.043559)" fill="none" stroke-linejoin="miter" d="M 199.998119 185.002244 L 220.995142 205.999268 " stroke="#fee715" stroke-width="1.5" stroke-opacity="1" stroke-miterlimit="4"/></g></g></g></g><g mask="url(#1c97e27559)"><g transform="matrix(1, 0, 0, 1, 370, 27)"><g clip-path="url(#01f546cb03)"><g clip-path="url(#a6944413be)"><path stroke-linecap="butt" transform="matrix(0.2625, 0, 0, 0.2625, -46.472164, -48.043559)" fill-opacity="1" fill="#000000" fill-rule="nonzero" stroke-linejoin="miter" d="M 199.998119 185.002244 L 179.001096 205.999268 " stroke="#fee715" stroke-width="1.5" stroke-opacity="1" stroke-miterlimit="4"/></g></g></g></g><g mask="url(#7b961306f5)"><g transform="matrix(1, 0, 0, 1, 370, 21)"><g clip-path="url(#081e826d5d)"><g clip-path="url(#fc2d425fe1)"><path fill="#000000" d="M 6.027344 6.519531 L 0.515625 1.007812 " fill-opacity="1" fill-rule="nonzero"/></g><g clip-path="url(#5a8c1f22e8)"><path stroke-linecap="butt" transform="matrix(0.2625, 0, 0, 0.2625, -46.472164, -42.043559)" fill="none" stroke-linejoin="miter" d="M 199.998119 185.002244 L 179.001096 164.005221 " stroke="#fee715" stroke-width="1.5" stroke-opacity="1" stroke-miterlimit="4"/></g></g></g></g></svg>